<?xml version="1.0" encoding="UTF-8" standalone="no"?>
<svg
   xmlns:dc="http://purl.org/dc/elements/1.1/"
   xmlns:cc="http://creativecommons.org/ns#"
   xmlns:rdf="http://www.w3.org/1999/02/22-rdf-syntax-ns#"
   xmlns:svg="http://www.w3.org/2000/svg"
   xmlns="http://www.w3.org/2000/svg"
   xmlns:sodipodi="http://sodipodi.sourceforge.net/DTD/sodipodi-0.dtd"
   xmlns:inkscape="http://www.inkscape.org/namespaces/inkscape"
   width="5.6692915pc"
   height="5.6692915pc"
   viewBox="0 0 24 24"
   version="1.1"
   id="svg3598"
   inkscape:version="1.0.1 (3bc2e813f5, 2020-09-07)"
   sodipodi:docname="dice_side2.svg">
  <defs
     id="defs3592" />
  <sodipodi:namedview
     id="base"
     pagecolor="#ffffff"
     bordercolor="#666666"
     borderopacity="1.0"
     inkscape:pageopacity="0.0"
     inkscape:pageshadow="2"
     inkscape:zoom="1.979899"
     inkscape:cx="167.27884"
     inkscape:cy="137.23361"
     inkscape:document-units="pc"
     inkscape:current-layer="layer1"
     inkscape:document-rotation="0"
     showgrid="false"
     showguides="false"
     width="25mm"
     inkscape:window-width="1366"
     inkscape:window-height="728"
     inkscape:window-x="0"
     inkscape:window-y="0"
     inkscape:window-maximized="0"
     units="pc" />
  <metadata
     id="metadata3595">
    <rdf:RDF>
      <cc:Work
         rdf:about="">
        <dc:format>image/svg+xml</dc:format>
        <dc:type
           rdf:resource="http://purl.org/dc/dcmitype/StillImage" />
        <dc:title></dc:title>
      </cc:Work>
    </rdf:RDF>
  </metadata>
  <g
     inkscape:label="Vrstva 1"
     inkscape:groupmode="layer"
     id="layer1">
    <g
       id="g1521"
       transform="translate(-0.83423338,0.05535333)">
      <rect
         x="1.4741095"
         y="0.71815139"
         width="22.754166"
         height="22.754166"
         rx="4.7624998"
         ry="4.7624998"
         fill="#f4081e"
         style="fill:#cc2c00;fill-opacity:1;stroke-width:0.264583;paint-order:normal"
         id="rect1476" />
      <path
         d="m 6.2366094,0.71815141 c -2.6384249,0 -4.7624999,2.12407499 -4.7624999,4.76249989 V 18.709818 c 0,2.38125 2.1166666,4.7625 2.1166666,2.116666 V 5.4806513 c 0,-1.3229166 1.3229167,-2.6458332 2.6458333,-2.6458332 H 21.582443 c 2.645833,0 0.264583,-2.11666669 -2.116667,-2.11666669 z"
         fill="#ffffff"
         fill-opacity="0.2262"
         style="stroke-width:0.264583;paint-order:normal"
         id="path1478" />
      <g
         id="g1488"
         transform="matrix(0.26458333,0,0,0.26458333,-0.37797381,-1.1339319)">
        <circle
           cx="70"
           cy="30"
           fill="#fafafa"
           style="paint-order:normal"
           id="ellipse1480"
           r="8" />
        <path
           d="m 70,22 c -4.418,0 -8,3.582 -8,8 0.0017,2.881 1.552,5.538 4.059,6.957 C 65,31 70,24.997 76.939,26.047 c -1.42,-2.496 -4.07,-4.039 -6.941,-4.043 z"
           fill="#dcdcdc"
           style="paint-order:normal"
           id="path1482" />
        <circle
           cx="30"
           cy="70"
           fill="#fafafa"
           style="paint-order:normal"
           id="ellipse1484"
           r="8" />
        <path
           d="m 30,62 c -4.418,0 -8,3.582 -8,8 0.0017,2.881 1.552,5.538 4.059,6.957 C 25,71 30,64.997 36.939,66.047 c -1.42,-2.496 -4.07,-4.039 -6.941,-4.043 z"
           fill="#dcdcdc"
           style="paint-order:normal"
           id="path1486" />
      </g>
    </g>
  </g>
</svg>
