<?xml version="1.0" encoding="UTF-8" standalone="no"?>
<svg
   xmlns:dc="http://purl.org/dc/elements/1.1/"
   xmlns:cc="http://creativecommons.org/ns#"
   xmlns:rdf="http://www.w3.org/1999/02/22-rdf-syntax-ns#"
   xmlns:svg="http://www.w3.org/2000/svg"
   xmlns="http://www.w3.org/2000/svg"
   xmlns:sodipodi="http://sodipodi.sourceforge.net/DTD/sodipodi-0.dtd"
   xmlns:inkscape="http://www.inkscape.org/namespaces/inkscape"
   width="5.6692915pc"
   height="5.6692915pc"
   viewBox="0 0 24 24"
   version="1.1"
   id="svg4209"
   inkscape:version="1.0.1 (3bc2e813f5, 2020-09-07)"
   sodipodi:docname="dice_side3.svg">
  <defs
     id="defs4203" />
  <sodipodi:namedview
     id="base"
     pagecolor="#ffffff"
     bordercolor="#666666"
     borderopacity="1.0"
     inkscape:pageopacity="0.0"
     inkscape:pageshadow="2"
     inkscape:zoom="1.4"
     inkscape:cx="205.07926"
     inkscape:cy="-40.264017"
     inkscape:document-units="pc"
     inkscape:current-layer="layer1"
     inkscape:document-rotation="0"
     showgrid="false"
     units="pc"
     inkscape:window-width="1366"
     inkscape:window-height="728"
     inkscape:window-x="0"
     inkscape:window-y="0"
     inkscape:window-maximized="0" />
  <metadata
     id="metadata4206">
    <rdf:RDF>
      <cc:Work
         rdf:about="">
        <dc:format>image/svg+xml</dc:format>
        <dc:type
           rdf:resource="http://purl.org/dc/dcmitype/StillImage" />
        <dc:title></dc:title>
      </cc:Work>
    </rdf:RDF>
  </metadata>
  <g
     inkscape:label="Vrstva 1"
     inkscape:groupmode="layer"
     id="layer1">
    <g
       id="g2173"
       transform="translate(-4.724706,-3.9687551)">
      <rect
         x="5.2538729"
         y="4.497921"
         width="22.754166"
         height="22.754166"
         rx="4.7624998"
         ry="4.7624998"
         fill="#f4081e"
         style="fill:#cc2c00;fill-opacity:1;stroke-width:0.264583;paint-order:normal"
         id="rect2118" />
      <path
         d="m 10.016373,4.4979209 c -2.6384252,0 -4.7625002,2.124075 -4.7625002,4.7624999 V 22.489587 c 0,2.38125 2.1166667,4.7625 2.1166667,2.116667 V 9.2604208 c 0,-1.3229166 1.3229166,-2.6458332 2.6458335,-2.6458332 h 15.345833 c 2.645833,0 0.264583,-2.1166667 -2.116667,-2.1166667 z"
         fill="#ffffff"
         fill-opacity="0.2262"
         style="stroke-width:0.264583;paint-order:normal"
         id="path2120" />
      <g
         id="g2134"
         transform="matrix(0.26458333,0,0,0.26458333,3.4017895,2.6458376)">
        <circle
           cx="70"
           cy="30"
           fill="#fafafa"
           style="paint-order:normal"
           id="ellipse2122"
           r="8" />
        <path
           d="m 70,22 c -4.418,0 -8,3.582 -8,8 0.0017,2.881 1.552,5.538 4.059,6.957 C 65,31 70,24.997 76.939,26.047 c -1.42,-2.496 -4.07,-4.039 -6.941,-4.043 z"
           fill="#dcdcdc"
           style="paint-order:normal"
           id="path2124" />
        <circle
           cx="30"
           cy="70"
           fill="#fafafa"
           style="paint-order:normal"
           id="ellipse2126"
           r="8" />
        <path
           d="m 30,62 c -4.418,0 -8,3.582 -8,8 0.0017,2.881 1.552,5.538 4.059,6.957 C 25,71 30,64.997 36.939,66.047 c -1.42,-2.496 -4.07,-4.039 -6.941,-4.043 z"
           fill="#dcdcdc"
           style="paint-order:normal"
           id="path2128" />
        <circle
           cx="50"
           cy="50"
           fill="#fafafa"
           style="paint-order:normal"
           id="ellipse2130"
           r="8" />
        <path
           d="m 50,42 c -4.418,0 -8,3.582 -8,8 0.0017,2.881 1.552,5.538 4.059,6.957 C 45,51 50,44.997 56.939,46.047 c -1.42,-2.496 -4.07,-4.039 -6.941,-4.043 z"
           fill="#dcdcdc"
           style="paint-order:normal"
           id="path2132" />
      </g>
    </g>
  </g>
</svg>
