<?xml version="1.0" encoding="UTF-8" standalone="no"?>
<svg
   xmlns:dc="http://purl.org/dc/elements/1.1/"
   xmlns:cc="http://creativecommons.org/ns#"
   xmlns:rdf="http://www.w3.org/1999/02/22-rdf-syntax-ns#"
   xmlns:svg="http://www.w3.org/2000/svg"
   xmlns="http://www.w3.org/2000/svg"
   xmlns:sodipodi="http://sodipodi.sourceforge.net/DTD/sodipodi-0.dtd"
   xmlns:inkscape="http://www.inkscape.org/namespaces/inkscape"
   width="210mm"
   height="297mm"
   viewBox="0 0 210 297"
   version="1.1"
   id="svg2181"
   inkscape:version="1.0.1 (3bc2e813f5, 2020-09-07)"
   sodipodi:docname="dice_side4.svg">
  <defs
     id="defs2175" />
  <sodipodi:namedview
     id="base"
     pagecolor="#ffffff"
     bordercolor="#666666"
     borderopacity="1.0"
     inkscape:pageopacity="0.0"
     inkscape:pageshadow="2"
     inkscape:zoom="1.979899"
     inkscape:cx="122.6081"
     inkscape:cy="81.180094"
     inkscape:document-units="mm"
     inkscape:current-layer="layer1"
     inkscape:document-rotation="0"
     showgrid="false"
     inkscape:window-width="1366"
     inkscape:window-height="728"
     inkscape:window-x="0"
     inkscape:window-y="0"
     inkscape:window-maximized="0" />
  <metadata
     id="metadata2178">
    <rdf:RDF>
      <cc:Work
         rdf:about="">
        <dc:format>image/svg+xml</dc:format>
        <dc:type
           rdf:resource="http://purl.org/dc/dcmitype/StillImage" />
        <dc:title></dc:title>
      </cc:Work>
    </rdf:RDF>
  </metadata>
  <g
     inkscape:label="Vrstva 1"
     inkscape:groupmode="layer"
     id="layer1">
    <g
       id="g2960">
      <g
         id="g2878"
         transform="matrix(0.26458333,0,0,0.26458333,5.1026788,2.078869)"
         style="fill:#cc2c00;fill-opacity:1">
        <rect
           x="7"
           y="7"
           width="86"
           height="86"
           rx="18"
           ry="18"
           fill="#f4081e"
           style="fill:#cc2c00;fill-opacity:1;paint-order:normal"
           id="rect2872" />
        <circle
           cx="30"
           cy="30"
           fill="#fafafa"
           style="fill:#cc2c00;fill-opacity:1;paint-order:normal"
           id="ellipse2874"
           r="8" />
        <path
           d="m 30,22 c -4.418,0 -8,3.582 -8,8 0.0017,2.881 1.552,5.538 4.059,6.957 C 25,31 30,24.997 36.939,26.047 c -1.42,-2.496 -4.07,-4.039 -6.941,-4.043 z"
           fill="#dcdcdc"
           style="fill:#cc2c00;fill-opacity:1;paint-order:normal"
           id="path2876" />
      </g>
      <path
         d="m 11.717262,3.9309523 c -2.6384249,0 -4.7624999,2.124075 -4.7624999,4.7625 V 21.922619 c 0,2.38125 2.1166666,4.7625 2.1166666,2.116666 V 8.6934523 c 0,-1.3229167 1.3229163,-2.6458333 2.6458333,-2.6458333 h 15.345833 c 2.645833,0 0.264584,-2.1166667 -2.116666,-2.1166667 z"
         fill="#ffffff"
         fill-opacity="0.2262"
         style="stroke-width:0.264583;paint-order:normal"
         id="path2880" />
      <circle
         cx="23.623512"
         cy="10.016369"
         fill="#fafafa"
         style="stroke-width:0.264583;paint-order:normal"
         id="ellipse2882"
         r="2.1166666" />
      <path
         d="m 23.623512,7.8997023 c -1.168929,0 -2.116667,0.9477374 -2.116667,2.1166667 4.5e-4,0.762264 0.410634,1.465262 1.073944,1.840706 -0.280194,-1.576123 1.042723,-3.1644165 2.878667,-2.886604 -0.375709,-0.6604 -1.076855,-1.0686521 -1.836473,-1.0697104 z"
         fill="#dcdcdc"
         style="stroke-width:0.264583;paint-order:normal"
         id="path2884" />
      <circle
         cx="13.040178"
         cy="20.599703"
         fill="#fafafa"
         style="stroke-width:0.264583;paint-order:normal"
         id="ellipse2886"
         r="2.1166666" />
      <path
         d="m 13.040179,18.483035 c -1.168929,0 -2.116667,0.947738 -2.116667,2.116667 4.5e-4,0.762265 0.410633,1.465263 1.073944,1.840706 -0.280194,-1.576123 1.042723,-3.164416 2.878666,-2.886604 -0.375708,-0.6604 -1.076854,-1.068652 -1.836472,-1.06971 z"
         fill="#dcdcdc"
         style="stroke-width:0.264583;paint-order:normal"
         id="path2888" />
      <g
         id="g2937"
         transform="matrix(1,0,0,0.98421636,0.06681738,0.42536425)">
        <circle
           cx="23.623512"
           cy="20.599703"
           fill="#fafafa"
           style="stroke-width:0.264583;paint-order:normal"
           id="ellipse2890"
           r="2.1166666" />
      </g>
      <path
         d="m 23.623512,18.483035 c -1.168929,0 -2.116667,0.947738 -2.116667,2.116667 4.5e-4,0.762265 0.410634,1.465263 1.073944,1.840706 -0.280194,-1.576123 1.042723,-3.164416 2.878667,-2.886604 -0.375709,-0.6604 -1.076855,-1.068652 -1.836473,-1.06971 z"
         fill="#dcdcdc"
         style="stroke-width:0.264583;paint-order:normal"
         id="path2892" />
      <g
         id="g2941"
         transform="matrix(0.97959345,0,0,1.0315673,-9.9846312,-11.140605)">
        <circle
           cx="23.623512"
           cy="20.599703"
           fill="#fafafa"
           style="stroke-width:0.264583;paint-order:normal"
           id="circle2939"
           r="2.1166666" />
      </g>
      <path
         d="m 13.03965,7.9007606 c -1.168929,0 -2.116667,0.947738 -2.116667,2.1166674 4.5e-4,0.762265 0.410634,1.465263 1.073944,1.840706 -0.280194,-1.576123 1.042723,-3.1644164 2.878667,-2.8866044 -0.375709,-0.6604 -1.076855,-1.068652 -1.836473,-1.06971 z"
         fill="#dcdcdc"
         style="stroke-width:0.264583;paint-order:normal"
         id="path2943" />
    </g>
  </g>
</svg>
