<?xml version="1.0" encoding="UTF-8" standalone="no"?>
<svg
   xmlns:dc="http://purl.org/dc/elements/1.1/"
   xmlns:cc="http://creativecommons.org/ns#"
   xmlns:rdf="http://www.w3.org/1999/02/22-rdf-syntax-ns#"
   xmlns:svg="http://www.w3.org/2000/svg"
   xmlns="http://www.w3.org/2000/svg"
   xmlns:sodipodi="http://sodipodi.sourceforge.net/DTD/sodipodi-0.dtd"
   xmlns:inkscape="http://www.inkscape.org/namespaces/inkscape"
   width="210mm"
   height="297mm"
   viewBox="0 0 210 297"
   version="1.1"
   id="svg8"
   inkscape:version="1.0.1 (3bc2e813f5, 2020-09-07)"
   sodipodi:docname="dice_side5.svg">
  <defs
     id="defs2" />
  <sodipodi:namedview
     id="base"
     pagecolor="#ffffff"
     bordercolor="#666666"
     borderopacity="1.0"
     inkscape:pageopacity="0.0"
     inkscape:pageshadow="2"
     inkscape:zoom="2.8"
     inkscape:cx="118.06776"
     inkscape:cy="73.350559"
     inkscape:document-units="mm"
     inkscape:current-layer="layer1"
     inkscape:document-rotation="0"
     showgrid="false"
     inkscape:window-width="1366"
     inkscape:window-height="728"
     inkscape:window-x="0"
     inkscape:window-y="0"
     inkscape:window-maximized="0" />
  <metadata
     id="metadata5">
    <rdf:RDF>
      <cc:Work
         rdf:about="">
        <dc:format>image/svg+xml</dc:format>
        <dc:type
           rdf:resource="http://purl.org/dc/dcmitype/StillImage" />
        <dc:title></dc:title>
      </cc:Work>
    </rdf:RDF>
  </metadata>
  <g
     inkscape:label="Vrstva 1"
     inkscape:groupmode="layer"
     id="layer1">
    <g
       id="g962">
      <g
         id="g875"
         transform="matrix(0.26458333,0,0,0.26458333,1.8898852,1.1339248)"
         style="fill:#cc2c00;fill-opacity:1">
        <rect
           x="7"
           y="7"
           width="86"
           height="86"
           rx="18"
           ry="18"
           fill="#f4081e"
           style="fill:#cc2c00;fill-opacity:1;paint-order:normal"
           id="rect869" />
        <circle
           cx="30"
           cy="30"
           fill="#fafafa"
           style="fill:#cc2c00;fill-opacity:1;paint-order:normal"
           id="ellipse871"
           r="8" />
        <path
           d="m 30,22 c -4.418,0 -8,3.582 -8,8 0.0017,2.881 1.552,5.538 4.059,6.957 C 25,31 30,24.997 36.939,26.047 c -1.42,-2.496 -4.07,-4.039 -6.941,-4.043 z"
           fill="#dcdcdc"
           style="fill:#cc2c00;fill-opacity:1;paint-order:normal"
           id="path873" />
      </g>
      <path
         d="m 8.5044684,2.9860081 c -2.6384249,0 -4.7624999,2.124075 -4.7624999,4.7624999 v 13.229167 c 0,2.38125 2.1166667,4.762499 2.1166667,2.116666 V 7.748508 c 0,-1.3229166 1.3229166,-2.6458333 2.6458332,-2.6458333 H 23.850302 c 2.645833,0 0.264583,-2.1166666 -2.116667,-2.1166666 z"
         fill="#ffffff"
         fill-opacity="0.2262"
         style="stroke-width:0.264583;paint-order:normal"
         id="path877" />
      <circle
         cx="20.410719"
         cy="9.0714245"
         fill="#fafafa"
         style="stroke-width:0.264583;paint-order:normal"
         id="ellipse879"
         r="2.1166666" />
      <path
         d="m 20.410718,6.9547581 c -1.168929,0 -2.116666,0.9477374 -2.116666,2.1166666 4.49e-4,0.7622646 0.410633,1.4652623 1.073943,1.8407063 -0.280193,-1.576123 1.042723,-3.1644167 2.878667,-2.8866042 -0.375708,-0.6604 -1.076854,-1.0686521 -1.836473,-1.0697104 z"
         fill="#dcdcdc"
         style="stroke-width:0.264583;paint-order:normal"
         id="path881" />
      <circle
         cx="9.8273849"
         cy="19.654758"
         fill="#fafafa"
         style="stroke-width:0.264583;paint-order:normal"
         id="ellipse883"
         r="2.1166666" />
      <path
         d="m 9.8273851,17.538091 c -1.1689292,0 -2.1166666,0.947738 -2.1166666,2.116667 4.498e-4,0.762264 0.4106333,1.465262 1.0739437,1.840706 C 8.5044684,19.919341 9.8273851,18.331048 11.663329,18.60886 11.28762,17.94846 10.586475,17.540208 9.8268559,17.53915 Z"
         fill="#dcdcdc"
         style="stroke-width:0.264583;paint-order:normal"
         id="path885" />
      <circle
         cx="20.410719"
         cy="19.654758"
         fill="#fafafa"
         style="stroke-width:0.264583;paint-order:normal"
         id="ellipse887"
         r="2.1166666" />
      <path
         d="m 20.410718,17.538091 c -1.168929,0 -2.116666,0.947738 -2.116666,2.116667 4.49e-4,0.762264 0.410633,1.465262 1.073943,1.840706 -0.280193,-1.576123 1.042723,-3.164416 2.878667,-2.886604 -0.375708,-0.6604 -1.076854,-1.068652 -1.836473,-1.06971 z"
         fill="#dcdcdc"
         style="stroke-width:0.264583;paint-order:normal"
         id="path889" />
      <circle
         cx="15.119052"
         cy="14.363091"
         fill="#fafafa"
         style="stroke-width:0.264583;paint-order:normal"
         id="ellipse891"
         r="2.1166666" />
      <path
         d="m 15.119052,12.246425 c -1.168929,0 -2.116667,0.947737 -2.116667,2.116666 4.5e-4,0.762265 0.410633,1.465263 1.073944,1.840707 -0.280194,-1.576123 1.042723,-3.164417 2.878666,-2.886605 -0.375708,-0.6604 -1.076854,-1.068652 -1.836472,-1.06971 z"
         fill="#dcdcdc"
         style="stroke-width:0.264583;paint-order:normal"
         id="path893" />
      <circle
         cx="9.759079"
         cy="9.0537224"
         fill="#fafafa"
         style="stroke-width:0.264583;paint-order:normal"
         id="circle943"
         r="2.1166666" />
      <path
         d="m 9.8279141,6.9536991 c -1.168929,0 -2.116666,0.947738 -2.116666,2.116667 4.49e-4,0.762264 0.410633,1.4652619 1.073943,1.8407059 -0.280193,-1.5761229 1.042723,-3.1644159 2.8786669,-2.8866039 -0.375708,-0.6604 -1.076854,-1.068652 -1.8364729,-1.06971 z"
         fill="#dcdcdc"
         style="stroke-width:0.264583;paint-order:normal"
         id="path945" />
    </g>
  </g>
</svg>
