<?xml version="1.0" encoding="UTF-8" standalone="no"?>
<svg
   xmlns:dc="http://purl.org/dc/elements/1.1/"
   xmlns:cc="http://creativecommons.org/ns#"
   xmlns:rdf="http://www.w3.org/1999/02/22-rdf-syntax-ns#"
   xmlns:svg="http://www.w3.org/2000/svg"
   xmlns="http://www.w3.org/2000/svg"
   xmlns:xlink="http://www.w3.org/1999/xlink"
   xmlns:sodipodi="http://sodipodi.sourceforge.net/DTD/sodipodi-0.dtd"
   xmlns:inkscape="http://www.inkscape.org/namespaces/inkscape"
   width="210mm"
   height="297mm"
   viewBox="0 0 210 297"
   version="1.1"
   id="svg1045"
   inkscape:version="1.0.1 (3bc2e813f5, 2020-09-07)"
   sodipodi:docname="vlocka.svg">
  <defs
     id="defs1039">
    <linearGradient
       inkscape:collect="always"
       id="linearGradient1479">
      <stop
         style="stop-color:#80e5ff;stop-opacity:1;"
         offset="0"
         id="stop1475" />
      <stop
         style="stop-color:#80e5ff;stop-opacity:0;"
         offset="1"
         id="stop1477" />
    </linearGradient>
    <linearGradient
       inkscape:collect="always"
       xlink:href="#linearGradient1479"
       id="linearGradient1481"
       x1="-196.16965"
       y1="105.83333"
       x2="15.497009"
       y2="105.83333"
       gradientUnits="userSpaceOnUse"
       gradientTransform="translate(5.345391,1.0690781)" />
  </defs>
  <sodipodi:namedview
     id="base"
     pagecolor="#ffffff"
     bordercolor="#666666"
     borderopacity="1.0"
     inkscape:pageopacity="0.0"
     inkscape:pageshadow="2"
     inkscape:zoom="0.7"
     inkscape:cx="278.85436"
     inkscape:cy="395.9798"
     inkscape:document-units="mm"
     inkscape:current-layer="layer1"
     inkscape:document-rotation="0"
     showgrid="false"
     inkscape:window-width="1366"
     inkscape:window-height="728"
     inkscape:window-x="0"
     inkscape:window-y="0"
     inkscape:window-maximized="0" />
  <metadata
     id="metadata1042">
    <rdf:RDF>
      <cc:Work
         rdf:about="">
        <dc:format>image/svg+xml</dc:format>
        <dc:type
           rdf:resource="http://purl.org/dc/dcmitype/StillImage" />
        <dc:title></dc:title>
      </cc:Work>
    </rdf:RDF>
  </metadata>
  <g
     inkscape:label="Vrstva 1"
     inkscape:groupmode="layer"
     id="layer1">
    <path
       d="m 3.7116598,8.4168716 c 0.1306649,0.0631 0.3853696,0.05435 0.5573845,-0.01493 l 2.3287702,-0.962806 -0.02918,0.902368 c 0.00104,0.09203 0.1688578,0.159352 0.3959508,0.140141 0.216013,-0.01751 0.404716,-0.103871 0.40158,-0.200489 l 0.03811,-1.175533 0.584509,-0.242262 2.9402037,0.222939 0.127332,0.320859 -1.9139717,1.032185 c -0.144392,0.07972 -0.137612,0.185504 0.02461,0.239062 0.16026,0.04897 0.409513,0.02648 0.564986,-0.05487 l 1.4993177,-0.805474 0.482089,1.214682 c 0.03458,0.0871 0.240976,0.134064 0.451517,0.102755 0.210551,-0.0313 0.358744,-0.131018 0.324186,-0.218112 l -0.480272,-1.210093 1.83256,0.300279 c 0.188048,0.03029 0.428204,-0.01512 0.544975,-0.105317 0.105691,-0.08853 0.04351,-0.186075 -0.146366,-0.220944 l -2.396714,-0.391137 -0.145515,-0.366699 2.179092,-0.925978 1.023616,0.09534 0.74507,1.049364 c 0.0567,0.08379 0.281652,0.118303 0.488568,0.07783 0.206906,-0.04048 0.329305,-0.146057 0.272576,-0.229851 l -0.580344,-0.811732 2.53416,0.234779 c 0.206574,0.01782 0.430177,-0.03983 0.510084,-0.134105 0.07986,-0.0944 -0.01371,-0.18242 -0.220301,-0.200243 l -2.642987,-0.242868 1.93744,-0.618205 c 0.186729,-0.06175 0.261163,-0.1699 0.150851,-0.240873 -0.08089,-0.05594 -0.252389,-0.07411 -0.407529,-0.05104 -0.04434,0.0068 -0.08681,0.01774 -0.129336,0.02895 l -2.501283,0.794286 -0.901893,-0.08432 -0.463884,-1.168848 0.987738,-0.409014 2.621824,0.07126 c 0.214019,0.0071 0.430354,-0.06886 0.477,-0.158314 0.05587,-0.09569 -0.08204,-0.177113 -0.283147,-0.181185 l -2.029548,-0.0574 2.147503,-0.887301 c 0.172015,-0.06927 0.198474,-0.180001 0.06781,-0.243092 -0.08837,-0.04512 -0.232213,-0.05284 -0.376273,-0.03142 -0.06646,0.0099 -0.131153,0.02436 -0.181101,0.04636 l -2.238137,0.925054 0.03313,-0.951502 c -0.001,-0.09203 -0.168858,-0.159346 -0.395951,-0.140142 -0.02222,0.0034 -0.04611,0.002 -0.06833,0.0053 -0.18838,0.02802 -0.332773,0.107735 -0.335089,0.190602 l -0.04206,1.224668 -0.876773,0.363387 -2.694253,-0.312909 -0.180105,-0.453786 1.836235,-0.991494 c 0.144393,-0.07972 0.137612,-0.185506 -0.02461,-0.239059 -0.09398,-0.02972 -0.213853,-0.03616 -0.335754,-0.01803 -0.08868,0.01313 -0.162576,0.0339 -0.231049,0.06834 l -1.421593,0.764788 -0.4366047,-1.100089 c -0.03458,-0.08709 -0.240966,-0.134064 -0.451517,-0.102755 -0.210551,0.0313 -0.358745,0.131023 -0.324176,0.218112 l 0.462068,1.164259 -1.933941,-0.319181 c -0.188049,-0.03029 -0.428205,0.01512 -0.544976,0.105314 -0.105691,0.08853 -0.04351,0.186079 0.146377,0.220944 l 2.496268,0.405457 0.154632,0.389614 -2.433963,0.963883 -0.7192959,-0.06778 -0.7743425,-1.093548 c -0.054933,-0.07921 -0.2447877,-0.11408 -0.4442483,-0.08442 -0.011111,0.0017 -0.03323,0.0047 -0.044341,0.0068 -0.206906,0.04047 -0.3293051,0.146055 -0.2725656,0.229851 L 5.6380803,4.8734516 2.873359,4.6195646 c -0.071963,-0.0038 -0.1420772,-0.0031 -0.2085675,0.0068 -0.1329598,0.01981 -0.255037,0.06705 -0.3015065,0.127358 -0.079855,0.0944 0.013707,0.182417 0.2202913,0.200245 l 2.7407338,0.2526 -1.8449891,0.585041 c -0.1867294,0.06175 -0.2611636,0.169901 -0.1508415,0.240871 0.1103118,0.07098 0.3501359,0.08385 0.5368654,0.0221 l 2.4069946,-0.765701 0.7193058,0.06778 0.505734,1.27427 -0.604851,0.250136 -2.7288338,-0.07477 c -0.059086,-9.3e-4 -0.1051924,0.0011 -0.1606027,0.0094 -0.1551405,0.02306 -0.2846424,0.08116 -0.3163974,0.148991 -0.055867,0.09569 0.082035,0.177116 0.2831471,0.181188 l 2.1347405,0.05632 -2.3380328,0.969032 c -0.1591178,0.07221 -0.1966672,0.18458 -0.054933,0.246027 z m 5.0022355,-1.855506 1.7239187,-0.712664 0.343822,0.86632 z m 2.8363407,-0.0092 -0.316543,-0.797562 1.801957,0.164055 z m 1.749392,-0.973725 -1.814854,-0.166995 1.501956,-0.621403 z m -0.791373,-1.018204 -1.513036,0.623051 -0.331091,-0.834233 z M 9.8738663,4.4277376 10.219516,5.2986416 8.1611933,5.1096076 Z m -2.013535,1.017866 2.058312,0.189037 -1.703566,0.704782 z"
       id="path1710-3-2-1-07-1-3"
       inkscape:transform-center-x="24.215121"
       inkscape:transform-center-y="11.884123"
       style="mix-blend-mode:normal;fill:#2c88a0;fill-opacity:1;stroke-width:0.0733429" />
  </g>
  <style
     id="style12" />
</svg>
